<svg width="100" height="100" viewBox="0 0 100 100" fill="none" xmlns="http://www.w3.org/2000/svg">
<path d="M87.9766 39.9141C86.5039 38.375 84.9805 36.7891 84.4063 35.3945C83.875 34.1172 83.8437 32 83.8125 29.9492C83.7539 26.1367 83.6914 21.8164 80.6875 18.8125C77.6836 15.8086 73.3633 15.7461 69.5508 15.6875C67.5 15.6562 65.3828 15.625 64.1055 15.0937C62.7148 14.5195 61.125 12.9961 59.5859 11.5234C56.8906 8.93359 53.8281 6 49.75 6C45.6719 6 42.6133 8.93359 39.9141 11.5234C38.375 12.9961 36.7891 14.5195 35.3945 15.0937C34.125 15.625 32 15.6562 29.9492 15.6875C26.1367 15.7461 21.8164 15.8086 18.8125 18.8125C15.8086 21.8164 15.7656 26.1367 15.6875 29.9492C15.6562 32 15.625 34.1172 15.0937 35.3945C14.5195 36.7852 12.9961 38.375 11.5234 39.9141C8.93359 42.6094 6 45.6719 6 49.75C6 53.8281 8.93359 56.8867 11.5234 59.5859C12.9961 61.125 14.5195 62.7109 15.0937 64.1055C15.625 65.3828 15.6562 67.5 15.6875 69.5508C15.7461 73.3633 15.8086 77.6836 18.8125 80.6875C21.8164 83.6914 26.1367 83.7539 29.9492 83.8125C32 83.8437 34.1172 83.875 35.3945 84.4063C36.7852 84.9805 38.375 86.5039 39.9141 87.9766C42.6094 90.5664 45.6719 93.5 49.75 93.5C53.8281 93.5 56.8867 90.5664 59.5859 87.9766C61.125 86.5039 62.7109 84.9805 64.1055 84.4063C65.3828 83.875 67.5 83.8437 69.5508 83.8125C73.3633 83.7539 77.6836 83.6914 80.6875 80.6875C83.6914 77.6836 83.7539 73.3633 83.8125 69.5508C83.8437 67.5 83.875 65.3828 84.4063 64.1055C84.9805 62.7148 86.5039 61.125 87.9766 59.5859C90.5664 56.8906 93.5 53.8281 93.5 49.75C93.5 45.6719 90.5664 42.6133 87.9766 39.9141ZM67.5859 42.5859L45.7109 64.4609C45.4207 64.7515 45.0761 64.982 44.6967 65.1393C44.3173 65.2965 43.9107 65.3775 43.5 65.3775C43.0893 65.3775 42.6827 65.2965 42.3033 65.1393C41.9239 64.982 41.5793 64.7515 41.2891 64.4609L31.9141 55.0859C31.6237 54.7956 31.3934 54.4509 31.2363 54.0716C31.0791 53.6922 30.9983 53.2856 30.9983 52.875C30.9983 52.4644 31.0791 52.0578 31.2363 51.6784C31.3934 51.2991 31.6237 50.9544 31.9141 50.6641C32.5004 50.0777 33.2957 49.7483 34.125 49.7483C34.5356 49.7483 34.9422 49.8291 35.3216 49.9863C35.7009 50.1434 36.0456 50.3737 36.3359 50.6641L43.5 57.832L63.1641 38.1641C63.4544 37.8737 63.7991 37.6434 64.1784 37.4863C64.5578 37.3291 64.9644 37.2483 65.375 37.2483C65.7856 37.2483 66.1922 37.3291 66.5716 37.4863C66.9509 37.6434 67.2956 37.8737 67.5859 38.1641C67.8763 38.4544 68.1066 38.7991 68.2637 39.1784C68.4209 39.5578 68.5017 39.9644 68.5017 40.375C68.5017 40.7856 68.4209 41.1922 68.2637 41.5716C68.1066 41.9509 67.8763 42.2956 67.5859 42.5859Z" fill="#22C55D"/>
</svg>
