<svg width="100" height="100" viewBox="0 0 100 100" fill="none" xmlns="http://www.w3.org/2000/svg">
<g clip-path="url(#clip0_175_1082)">
<path fill-rule="evenodd" clip-rule="evenodd" d="M73.7857 0C65.8857 0 59.2143 2.23571 54.5143 6.92857C49.8214 11.6286 47.5857 18.3 47.5857 26.2C47.5857 34.1 49.8214 40.7714 54.5143 45.4643C59.2071 50.1571 65.8857 52.3929 73.7857 52.3929C81.6857 52.3929 88.3571 50.1643 93.05 45.4643C97.75 40.7714 99.9786 34.0929 99.9786 26.2C99.9786 18.3071 97.75 11.6286 93.05 6.92857C88.35 2.22857 81.6929 0 73.7857 0ZM73.7857 16.4643C75.2065 16.4643 76.5691 17.0287 77.5738 18.0334C78.5784 19.038 79.1429 20.4006 79.1429 21.8214V30.5714C79.1429 31.9922 78.5784 33.3548 77.5738 34.3595C76.5691 35.3642 75.2065 35.9286 73.7857 35.9286C72.3649 35.9286 71.0023 35.3642 69.9976 34.3595C68.993 33.3548 68.4286 31.9922 68.4286 30.5714V21.8214C68.4286 20.4006 68.993 19.038 69.9976 18.0334C71.0023 17.0287 72.3649 16.4643 73.7857 16.4643ZM10.9429 51.7357C16.2488 51.405 21.574 51.8989 26.7286 53.2L35.0214 55.2857C36.2888 55.5576 37.3962 56.3217 38.1002 57.4101C38.8041 58.4985 39.0468 59.8219 38.775 61.0893C38.5032 62.3566 37.739 63.4641 36.6506 64.168C35.5622 64.872 34.2388 65.1147 32.9714 64.8429L25.1429 63.4429C23.9932 63.27 22.8215 63.5524 21.8768 64.23C20.9321 64.9076 20.2891 65.9271 20.0844 67.0715C19.8797 68.2159 20.1295 69.395 20.7807 70.3581C21.4319 71.3212 22.4331 71.9922 23.5714 72.2286L51.1571 77.1786C51.7608 77.2927 52.382 77.2756 52.9786 77.1286L81.5571 70.3428C82.6148 70.0835 83.7315 70.2351 84.6817 70.767C85.6319 71.299 86.3449 72.1717 86.6767 73.2088C87.0086 74.246 86.9345 75.3705 86.4695 76.3552C86.0045 77.34 85.1832 78.1116 84.1714 78.5143L61.3143 87.8C51.2059 91.9071 39.9421 92.1638 29.6571 88.5214L5.95714 80.1429C5.40086 79.9306 4.80774 79.8317 4.21268 79.852C3.61762 79.8724 3.03264 80.0116 2.49218 80.2614C1.95172 80.5112 1.46669 80.8667 1.06565 81.3067C0.664602 81.7468 0.355644 82.2627 0.156957 82.824C-0.0417312 83.3853 -0.126134 83.9806 -0.0912842 84.575C-0.0564344 85.1694 0.0969639 85.7508 0.359882 86.285C0.6228 86.8192 0.989926 87.2955 1.43965 87.6857C1.88938 88.0759 2.41261 88.3722 2.97857 88.5571L26.6786 96.95C39.0238 101.312 52.5392 101.002 64.6714 96.0786L87.5286 86.7929C90.6207 85.5405 93.1255 83.1661 94.5412 80.1452C95.9569 77.1243 96.1788 73.6801 95.1627 70.5025C94.1465 67.3248 91.9673 64.6485 89.0615 63.0095C86.1557 61.3706 82.7379 60.8901 79.4929 61.6643L51.8214 68.2357L45.6857 67.1357C46.7943 65.286 47.4544 63.2024 47.6132 61.0518C47.7721 58.9012 47.4252 56.7433 46.6005 54.7508C45.7757 52.7583 44.4959 50.9865 42.8635 49.5774C41.2312 48.1682 39.2916 47.1608 37.2 46.6357L28.9143 44.55C22.8652 43.0306 16.6181 42.4524 10.3929 42.8357L5.39285 43.1357C4.21075 43.2086 3.10603 43.7482 2.32172 44.6356C1.53742 45.5231 1.13778 46.6857 1.21071 47.8679C1.28364 49.05 1.82318 50.1547 2.71063 50.939C3.59808 51.7233 4.76075 52.1229 5.94285 52.05L10.9429 51.7357Z" fill="#22C55D"/>
</g>
<defs>
<clipPath id="clip0_175_1082">
<rect width="100" height="100" fill="white"/>
</clipPath>
</defs>
</svg>
