<svg width="200" height="36" viewBox="0 0 200 36" fill="none" xmlns="http://www.w3.org/2000/svg">
<g clip-path="url(#clip0_238_850)">
<path d="M45.6777 34.5263V3.78943H64.7599V6.10522H48.1537V17.9789H64.7599V20.2526H48.1537V32.2105H64.7599V34.5263H45.6777Z" fill="#22C55D"/>
<path d="M82.946 35.0316C75.5607 35.0316 69.8831 29.3053 69.8831 22.2316C69.8831 14.9895 75.6461 9.38953 82.9033 9.38953C88.3249 9.38953 92.8927 12.4632 94.7283 16.9685L92.4658 17.8948C90.8009 14.0211 87.343 11.6211 82.9033 11.6211C76.9268 11.6211 72.359 16.3369 72.359 22.2316C72.359 28.1264 76.9695 32.8001 82.9887 32.8001C87.5992 32.8001 90.9716 30.1474 92.5511 26.3158L94.8564 27.2843C92.8927 31.8316 88.6664 35.0316 82.946 35.0316Z" fill="#22C55D"/>
<path d="M112.626 35.0316C105.455 35.0316 99.6489 29.4316 99.6489 22.2316C99.6489 15.0316 105.455 9.38953 112.626 9.38953C119.798 9.38953 125.604 15.0316 125.604 22.2316C125.604 29.4316 119.798 35.0316 112.626 35.0316ZM112.626 32.8001C118.475 32.8001 123.085 28.1264 123.085 22.2316C123.085 16.3369 118.475 11.6211 112.626 11.6211C106.693 11.6211 102.125 16.3369 102.125 22.2316C102.125 28.1264 106.693 32.8001 112.626 32.8001Z" fill="#22C55D"/>
<path d="M129.898 34.5263V3.78943H135.704V29.0526H147.102V34.5263H129.898Z" fill="#22C55D"/>
<path d="M150.323 34.5264V9.8948H156.128V34.5264H150.323ZM149.597 3.87374C149.597 1.72638 151.006 0.2948 153.225 0.2948C155.488 0.2948 156.854 1.72638 156.854 3.87374C156.854 6.02111 155.488 7.41059 153.225 7.41059C150.877 7.41059 149.597 6.02111 149.597 3.87374Z" fill="#22C55D"/>
<path d="M158.513 14.9895V9.89474H162.739V9.85263C162.739 2.77895 165.6 0 173.198 0H173.711V5.26316C169.1 5.26316 168.588 6.31579 168.588 9.89474H173.711V14.9895H168.588V34.5263H162.739V14.9895H158.513Z" fill="#22C55D"/>
<path d="M187.216 35.0316C179.361 35.0316 174.025 29.3895 174.025 22.2737C174.025 15.0737 179.702 9.38953 187.002 9.38953C194.43 9.38953 199.852 14.779 199.852 22.0632V24.2106H179.531C180.343 27.7053 183.117 30.0211 187.216 30.0211C190.46 30.0211 192.936 28.3369 194.131 25.6843L198.87 28.379C196.693 32.379 192.851 35.0316 187.216 35.0316ZM187.002 14.4001C183.544 14.4001 180.855 16.4211 179.83 19.4527H194.003C193.149 16.1264 190.588 14.4001 187.002 14.4001Z" fill="#22C55D"/>
<path d="M4.0121 12.8684C1.45 15.3951 0.00736235 18.8202 2.81014e-05 22.3937C-0.00730615 25.9673 1.42126 29.3981 3.97296 31.9351C6.84916 25.3737 11.9755 19.893 18.3735 16.6316C12.8509 21.2402 9.12305 27.5979 7.82747 34.6175C12.9146 36.9911 19.1757 36.1227 23.3825 31.9737C30.1915 25.2579 31.3067 5.05261 31.3067 5.05261C31.3067 5.05261 10.8211 6.15261 4.0121 12.8684Z" fill="#22C55D"/>
</g>
<defs>
<clipPath id="clip0_238_850">
<rect width="200" height="36" fill="white"/>
</clipPath>
</defs>
</svg>
