<svg width="100" height="100" viewBox="0 0 100 100" fill="none" xmlns="http://www.w3.org/2000/svg">
<path d="M20.8333 87.5C18.5417 87.5 16.5806 86.6847 14.95 85.0542C13.3194 83.4236 12.5028 81.4611 12.5 79.1667V20.8333C12.5 18.5417 13.3167 16.5806 14.95 14.95C16.5833 13.3194 18.5444 12.5028 20.8333 12.5H79.1667C81.4583 12.5 83.4208 13.3167 85.0542 14.95C86.6875 16.5833 87.5028 18.5444 87.5 20.8333V79.1667C87.5 81.4583 86.6847 83.4208 85.0542 85.0542C83.4236 86.6875 81.4611 87.5028 79.1667 87.5H20.8333ZM29.1667 70.8333H70.8333C71.6667 70.8333 72.2917 70.4514 72.7083 69.6875C73.125 68.9236 73.0556 68.1944 72.5 67.5L61.0417 52.1875C60.625 51.6319 60.0694 51.3542 59.375 51.3542C58.6806 51.3542 58.125 51.6319 57.7083 52.1875L46.875 66.6667L39.1667 56.3542C38.75 55.7986 38.1944 55.5208 37.5 55.5208C36.8056 55.5208 36.25 55.7986 35.8333 56.3542L27.5 67.5C26.9444 68.1944 26.875 68.9236 27.2917 69.6875C27.7083 70.4514 28.3333 70.8333 29.1667 70.8333Z" fill="#22C55D"/>
</svg>
