<svg width="44" height="44" viewBox="0 0 44 44" fill="none" xmlns="http://www.w3.org/2000/svg">
<path d="M20.9692 9.94709C21.1892 9.94709 21.3 9.81823 21.3558 9.61552C21.9263 6.54023 21.8901 6.46637 25.0942 5.85902C25.3143 5.82209 25.4439 5.69402 25.4439 5.47245C25.4439 5.25166 25.315 5.1228 25.0935 5.08587C21.9082 4.44159 22.0001 4.36773 21.3558 1.32859C21.3008 1.12666 21.19 0.997803 20.9692 0.997803C20.7485 0.997803 20.6377 1.12666 20.5819 1.32859C19.9376 4.36773 20.0476 4.4408 16.8442 5.08587C16.6415 5.12202 16.4938 5.25087 16.4938 5.47245C16.4938 5.69323 16.6415 5.82209 16.8435 5.85902C20.0484 6.5033 20.0115 6.54023 20.5819 9.61552C20.6369 9.81823 20.7485 9.94709 20.9692 9.94709ZM12.0561 22.6167C12.4057 22.6167 12.6454 22.3959 12.6823 22.0644C13.3447 17.1474 13.5105 17.1474 18.5932 16.1715C18.9248 16.1165 19.1645 15.8949 19.1645 15.5453C19.1645 15.2137 18.9248 14.9749 18.5932 14.9191C13.5105 14.2198 13.3266 14.054 12.6823 9.04509C12.6454 8.71352 12.4057 8.47387 12.0561 8.47387C11.7245 8.47387 11.4849 8.71352 11.448 9.06316C10.8406 13.9982 10.5829 13.9802 5.53703 14.9191C5.20546 14.9929 4.96582 15.2137 4.96582 15.5453C4.96582 15.9138 5.20546 16.1165 5.61011 16.1715C10.6198 16.9816 10.8406 17.1104 11.448 22.0274C11.4849 22.3959 11.7245 22.6167 12.0561 22.6167ZM24.5411 43.0029C25.0204 43.0029 25.37 42.6524 25.462 42.1551C26.7694 32.0642 28.1876 30.5352 38.1685 29.4304C38.684 29.3754 39.0344 28.9889 39.0344 28.5096C39.0344 28.0303 38.684 27.6626 38.1685 27.5887C28.1876 26.484 26.7694 24.9558 25.462 14.8641C25.37 14.3667 25.0204 14.0352 24.5411 14.0352C24.0618 14.0352 23.713 14.3667 23.6391 14.8641C22.3317 24.9558 20.8954 26.484 10.9325 27.5887C10.3982 27.6626 10.0486 28.0311 10.0486 28.5096C10.0486 28.9889 10.3982 29.3754 10.9325 29.4304C20.8765 30.7379 22.2578 32.0822 23.6391 42.1551C23.713 42.6524 24.0626 43.0029 24.5411 43.0029Z" fill="white"/>
</svg>
